<svg width="23" height="22" viewBox="0 0 23 22" fill="none" xmlns="http://www.w3.org/2000/svg">
<path opacity="0.4" d="M16.25 8.25001C16.25 11.7975 13.17 14.6667 9.37499 14.6667L8.5225 15.6933L8.01833 16.2984C7.58749 16.8117 6.76249 16.7017 6.47832 16.0875L5.24999 13.3833C3.58166 12.21 2.49999 10.3492 2.49999 8.25001C2.49999 4.70251 5.57999 1.83334 9.37499 1.83334C12.1433 1.83334 14.5358 3.36418 15.6083 5.56418C16.0208 6.38002 16.25 7.28751 16.25 8.25001Z" fill="white"/>
<path d="M20.8333 11.7883C20.8333 13.8875 19.7517 15.7484 18.0833 16.9217L16.855 19.6258C16.5708 20.24 15.7458 20.3592 15.315 19.8367L13.9583 18.205C11.74 18.205 9.76 17.2242 8.5225 15.6933L9.37499 14.6667C13.17 14.6667 16.25 11.7975 16.25 8.25001C16.25 7.28751 16.0208 6.38001 15.6083 5.56418C18.6058 6.25168 20.8333 8.78166 20.8333 11.7883Z" fill="white"/>
<path d="M11.6667 8.9375H7.08332C6.70749 8.9375 6.39582 8.62583 6.39582 8.25C6.39582 7.87417 6.70749 7.5625 7.08332 7.5625H11.6667C12.0425 7.5625 12.3542 7.87417 12.3542 8.25C12.3542 8.62583 12.0425 8.9375 11.6667 8.9375Z" fill="white"/>
</svg>
