<svg width="20" height="21" viewBox="0 0 20 21" fill="none" xmlns="http://www.w3.org/2000/svg">
<path opacity="0.4" d="M10 18.8333C14.6024 18.8333 18.3333 15.1024 18.3333 10.5C18.3333 5.89762 14.6024 2.16666 10 2.16666C5.39763 2.16666 1.66667 5.89762 1.66667 10.5C1.66667 15.1024 5.39763 18.8333 10 18.8333Z" fill="#D04B1E"/>
<path d="M13.0917 13.775C12.9833 13.775 12.875 13.75 12.775 13.6833L10.1917 12.1417C9.55 11.7583 9.075 10.9167 9.075 10.175V6.75833C9.075 6.41666 9.35833 6.13333 9.7 6.13333C10.0417 6.13333 10.325 6.41666 10.325 6.75833V10.175C10.325 10.475 10.575 10.9167 10.8333 11.0667L13.4167 12.6083C13.7167 12.7833 13.8083 13.1667 13.6333 13.4667C13.5083 13.6667 13.3 13.775 13.0917 13.775Z" fill="#D04B1E"/>
</svg>
