<svg width="20" height="21" viewBox="0 0 20 21" fill="none" xmlns="http://www.w3.org/2000/svg">
<path opacity="0.4" d="M18.325 5.51668C18.3417 5.71668 18.325 5.92501 18.275 6.13334L15.4667 17.4083C15.2667 18.25 14.5167 18.8333 13.65 18.8333H2.69999C1.44166 18.8333 0.550005 17.6 0.916671 16.3917L4.425 5.11665C4.66666 4.33332 5.39168 3.80002 6.20834 3.80002H16.4583C17.2583 3.80002 17.9083 4.27501 18.1833 4.94168C18.2667 5.11668 18.3083 5.31668 18.325 5.51668Z" fill="#D04B1E"/>
<path d="M19.1583 16.85C19.2417 17.925 18.3917 18.8333 17.3167 18.8333H13.65C14.5167 18.8333 15.2667 18.25 15.4667 17.4083L18.275 6.13334C18.325 5.92501 18.3417 5.71668 18.325 5.51668L18.3333 5.5L19.1583 16.85Z" fill="#D04B1E"/>
<path d="M8.06665 6.44167C8.01665 6.44167 7.96666 6.43332 7.91666 6.42498C7.58332 6.34165 7.375 6.00834 7.45833 5.66667L8.32498 2.06667C8.40831 1.73333 8.74165 1.53334 9.08332 1.60834C9.41665 1.69168 9.625 2.02499 9.54167 2.36665L8.67499 5.96666C8.60833 6.24999 8.34998 6.44167 8.06665 6.44167Z" fill="#D04B1E"/>
<path d="M13.65 6.44999C13.6083 6.44999 13.5583 6.44997 13.5167 6.4333C13.1833 6.3583 12.9667 6.02496 13.0333 5.69163L13.8166 2.07499C13.8916 1.73332 14.225 1.52497 14.5583 1.59164C14.8917 1.66664 15.1083 1.99999 15.0416 2.33332L14.2583 5.94996C14.2 6.24996 13.9417 6.44999 13.65 6.44999Z" fill="#D04B1E"/>
<path d="M13.0833 11.125H6.41667C6.07501 11.125 5.79167 10.8417 5.79167 10.5C5.79167 10.1583 6.07501 9.875 6.41667 9.875H13.0833C13.425 9.875 13.7083 10.1583 13.7083 10.5C13.7083 10.8417 13.425 11.125 13.0833 11.125Z" fill="#D04B1E"/>
<path d="M12.25 14.4583H5.58334C5.24168 14.4583 4.95834 14.175 4.95834 13.8333C4.95834 13.4917 5.24168 13.2083 5.58334 13.2083H12.25C12.5917 13.2083 12.875 13.4917 12.875 13.8333C12.875 14.175 12.5917 14.4583 12.25 14.4583Z" fill="#D04B1E"/>
</svg>
