<svg width="70" height="70" viewBox="0 0 70 70" fill="none" xmlns="http://www.w3.org/2000/svg">
<rect width="70" height="70" rx="35" fill="#E3F1DA"/>
<path opacity="0.4" d="M41.255 32.09H28.745C26.975 32.09 26.36 30.905 27.395 29.465L33.65 20.705C34.385 19.655 35.615 19.655 36.35 20.705L42.605 29.465C43.64 30.905 43.025 32.09 41.255 32.09Z" fill="#246500"/>
<path d="M43.385 44H26.615C24.245 44 23.435 42.425 24.83 40.505L30.815 32.09H39.185L45.17 40.505C46.565 42.425 45.755 44 43.385 44Z" fill="#246500"/>
<path d="M36.125 44V50C36.125 50.615 35.615 51.125 35 51.125C34.385 51.125 33.875 50.615 33.875 50V44H36.125Z" fill="#246500"/>
</svg>
