<svg width="70" height="70" viewBox="0 0 70 70" fill="none" xmlns="http://www.w3.org/2000/svg">
<rect width="70" height="70" rx="35" fill="#FFD1AD"/>
<path opacity="0.6" d="M43.685 32.705V35H20V32.705C20 29.225 22.835 26.39 26.315 26.39H37.37C40.85 26.39 43.685 29.225 43.685 32.705Z" fill="#D04B1E"/>
<path opacity="0.4" d="M43.685 35V43.685C43.685 47.165 40.85 50 37.37 50H26.315C22.835 50 20 47.165 20 43.685V35H43.685Z" fill="#D04B1E"/>
<path d="M25.25 24.68C24.635 24.68 24.125 24.17 24.125 23.555V20.93C24.125 20.315 24.635 19.805 25.25 19.805C25.865 19.805 26.375 20.315 26.375 20.93V23.555C26.375 24.185 25.865 24.68 25.25 24.68Z" fill="#D04B1E"/>
<path d="M31.25 24.68C30.635 24.68 30.125 24.17 30.125 23.555V20.93C30.125 20.315 30.635 19.805 31.25 19.805C31.865 19.805 32.375 20.315 32.375 20.93V23.555C32.375 24.185 31.865 24.68 31.25 24.68Z" fill="#D04B1E"/>
<path d="M37.25 24.68C36.635 24.68 36.125 24.17 36.125 23.555V20.93C36.125 20.315 36.635 19.805 37.25 19.805C37.865 19.805 38.375 20.315 38.375 20.93V23.555C38.375 24.185 37.865 24.68 37.25 24.68Z" fill="#D04B1E"/>
<path d="M49.475 38.48C49.475 41.705 46.865 44.315 43.64 44.315V32.63C46.85 32.63 49.475 35.255 49.475 38.48Z" fill="#D04B1E"/>
</svg>
