<svg width="70" height="70" viewBox="0 0 70 70" fill="none" xmlns="http://www.w3.org/2000/svg">
<rect width="70" height="70" rx="35" fill="#E3DDFF"/>
<path d="M45.995 25.52L36.59 20.45C35.6 19.91 34.4 19.91 33.41 20.45L24.005 25.52C23.315 25.895 22.895 26.615 22.895 27.44C22.895 28.25 23.315 28.985 24.005 29.36L33.41 34.43C33.905 34.7 34.46 34.835 35 34.835C35.54 34.835 36.095 34.7 36.59 34.43L45.995 29.36C46.685 28.985 47.105 28.265 47.105 27.44C47.105 26.615 46.685 25.895 45.995 25.52Z" fill="#5E4FB8"/>
<path opacity="0.4" d="M31.865 36.185L23.105 31.805C22.43 31.475 21.65 31.505 21.02 31.895C20.375 32.3 20 32.975 20 33.725V41.99C20 43.415 20.795 44.705 22.07 45.35L30.815 49.73C31.115 49.88 31.445 49.955 31.775 49.955C32.165 49.955 32.555 49.85 32.9 49.64C33.545 49.25 33.92 48.56 33.92 47.81V39.545C33.935 38.105 33.14 36.815 31.865 36.185Z" fill="#5E4FB8"/>
<path opacity="0.4" d="M48.98 31.895C48.335 31.505 47.555 31.46 46.895 31.805L38.15 36.185C36.875 36.83 36.08 38.105 36.08 39.545V47.81C36.08 48.56 36.455 49.25 37.1 49.64C37.445 49.85 37.835 49.955 38.225 49.955C38.555 49.955 38.885 49.88 39.185 49.73L47.93 45.35C49.205 44.705 50 43.43 50 41.99V33.725C50 32.975 49.625 32.3 48.98 31.895Z" fill="#5E4FB8"/>
</svg>
