<svg width="23" height="22" viewBox="0 0 23 22" fill="none" xmlns="http://www.w3.org/2000/svg">
<path d="M20.5 5.50001V7.71834C20.5 9.16668 19.5833 10.0833 18.135 10.0833H15V3.67584C15 2.65834 15.8342 1.83334 16.8517 1.83334C17.8508 1.84251 18.7675 2.24584 19.4275 2.90584C20.0875 3.57501 20.5 4.49168 20.5 5.50001Z" fill="white"/>
<path opacity="0.4" d="M2.16666 6.41668V19.25C2.16666 20.0108 3.02833 20.4417 3.63333 19.9833L5.20083 18.81C5.56749 18.535 6.08083 18.5717 6.41083 18.9017L7.93249 20.4325C8.28999 20.79 8.87667 20.79 9.23417 20.4325L10.7742 18.8925C11.095 18.5717 11.6083 18.535 11.9658 18.81L13.5333 19.9833C14.1383 20.4325 15 20.0017 15 19.25V3.66668C15 2.65834 15.825 1.83334 16.8333 1.83334H6.75H5.83333C3.08333 1.83334 2.16666 3.47418 2.16666 5.50001V6.41668Z" fill="white"/>
<path d="M11.3333 8.9375H5.83333C5.45749 8.9375 5.14583 8.62583 5.14583 8.25C5.14583 7.87417 5.45749 7.5625 5.83333 7.5625H11.3333C11.7092 7.5625 12.0208 7.87417 12.0208 8.25C12.0208 8.62583 11.7092 8.9375 11.3333 8.9375Z" fill="white"/>
<path d="M10.6458 12.6042H6.52083C6.14499 12.6042 5.83333 12.2925 5.83333 11.9167C5.83333 11.5408 6.14499 11.2292 6.52083 11.2292H10.6458C11.0217 11.2292 11.3333 11.5408 11.3333 11.9167C11.3333 12.2925 11.0217 12.6042 10.6458 12.6042Z" fill="white"/>
</svg>
