<svg width="22" height="22" viewBox="0 0 22 22" fill="none" xmlns="http://www.w3.org/2000/svg">
<path opacity="0.4" d="M17.7283 13.2825L16.8117 11.7608C16.6192 11.4217 16.445 10.78 16.445 10.4042V8.08499C16.445 5.09666 14.0158 2.65833 11.0183 2.65833C8.02083 2.65833 5.59167 5.09666 5.59167 8.08499V10.4042C5.59167 10.78 5.4175 11.4217 5.225 11.7517L4.29917 13.2825C3.9325 13.8967 3.85 14.575 4.07917 15.1983C4.29917 15.8125 4.82167 16.2892 5.5 16.5183C7.27833 17.1233 9.14833 17.4167 11.0183 17.4167C12.8883 17.4167 14.7583 17.1233 16.5367 16.5275C17.1783 16.3167 17.6733 15.8308 17.9117 15.1983C18.15 14.5658 18.0858 13.8692 17.7283 13.2825Z" fill="#030504"/>
<path d="M13.0625 3.04331C12.43 2.79581 11.7425 2.65831 11.0183 2.65831C10.3033 2.65831 9.61584 2.78665 8.98334 3.04331C9.3775 2.30081 10.1567 1.83331 11.0183 1.83331C11.8892 1.83331 12.6592 2.30081 13.0625 3.04331Z" fill="#030504"/>
<path d="M13.5942 18.3425C13.2092 19.4058 12.1917 20.1666 11 20.1666C10.2758 20.1666 9.56083 19.8733 9.05667 19.3508C8.76333 19.0758 8.54333 18.7091 8.415 18.3333C8.53417 18.3516 8.65333 18.3608 8.78167 18.3791C8.9925 18.4066 9.2125 18.4341 9.4325 18.4525C9.955 18.4983 10.4867 18.5258 11.0183 18.5258C11.5408 18.5258 12.0633 18.4983 12.5767 18.4525C12.7692 18.4341 12.9617 18.425 13.145 18.3975C13.2917 18.3791 13.4383 18.3608 13.5942 18.3425Z" fill="#030504"/>
</svg>
