<svg width="22" height="22" viewBox="0 0 22 22" fill="none" xmlns="http://www.w3.org/2000/svg">
<path opacity="0.4" d="M19.3233 7.86504V14.135C19.3233 15.1617 18.7733 16.115 17.8842 16.6375L12.4392 19.7817C11.55 20.295 10.45 20.295 9.55167 19.7817L4.10667 16.6375C3.2175 16.1242 2.6675 15.1708 2.6675 14.135V7.86504C2.6675 6.83837 3.2175 5.885 4.10667 5.3625L9.55167 2.21834C10.4408 1.70501 11.5408 1.70501 12.4392 2.21834L17.8842 5.3625C18.7733 5.885 19.3233 6.82921 19.3233 7.86504Z" fill="white"/>
<path d="M11 11C12.1796 11 13.1358 10.0437 13.1358 8.86416C13.1358 7.68457 12.1796 6.72836 11 6.72836C9.82041 6.72836 8.86417 7.68457 8.86417 8.86416C8.86417 10.0437 9.82041 11 11 11Z" fill="white"/>
<path d="M13.4567 15.2716C14.1992 15.2716 14.63 14.4467 14.2175 13.8325C13.5942 12.9067 12.3842 12.2834 11 12.2834C9.61583 12.2834 8.40583 12.9067 7.7825 13.8325C7.37 14.4467 7.80083 15.2716 8.54333 15.2716H13.4567Z" fill="white"/>
</svg>
