<svg width="70" height="70" viewBox="0 0 70 70" fill="none" xmlns="http://www.w3.org/2000/svg">
<rect width="70" height="70" rx="35" fill="#E3F1DA"/>
<path opacity="0.4" d="M42.77 24.875C40.205 24.875 37.145 25.85 37.145 30.5V39.5C37.145 44.15 40.205 45.125 42.77 45.125C45.335 45.125 48.395 44.15 48.395 39.5V30.5C48.395 25.85 45.335 24.875 42.77 24.875Z" fill="#246500"/>
<path opacity="0.4" d="M27.23 24.875C24.665 24.875 21.605 25.85 21.605 30.5V39.5C21.605 44.15 24.665 45.125 27.23 45.125C29.795 45.125 32.855 44.15 32.855 39.5V30.5C32.855 25.85 29.795 24.875 27.23 24.875Z" fill="#246500"/>
<path d="M37.145 33.875H32.855V36.125H37.145V33.875Z" fill="#246500"/>
<path d="M50.75 39.875C50.135 39.875 49.625 39.365 49.625 38.75V31.25C49.625 30.635 50.135 30.125 50.75 30.125C51.365 30.125 51.875 30.635 51.875 31.25V38.75C51.875 39.365 51.365 39.875 50.75 39.875Z" fill="#246500"/>
<path d="M19.25 39.875C18.635 39.875 18.125 39.365 18.125 38.75V31.25C18.125 30.635 18.635 30.125 19.25 30.125C19.865 30.125 20.375 30.635 20.375 31.25V38.75C20.375 39.365 19.865 39.875 19.25 39.875Z" fill="#246500"/>
</svg>
