<svg width="70" height="70" viewBox="0 0 70 70" fill="none" xmlns="http://www.w3.org/2000/svg">
<rect width="70" height="70" rx="35" fill="#E3DDFF"/>
<path opacity="0.4" d="M33.44 20.165L25.19 23.255C23.615 23.855 22.325 25.715 22.325 27.41V39.56C22.325 40.775 23.12 42.38 24.095 43.1L32.345 49.265C33.8 50.36 36.185 50.36 37.64 49.265L45.89 43.1C46.865 42.365 47.66 40.775 47.66 39.56V27.41C47.66 25.73 46.37 23.855 44.795 23.27L36.545 20.18C35.705 19.85 34.295 19.85 33.44 20.165Z" fill="#5E4FB8"/>
<path d="M38.75 32.75C38.75 30.68 37.07 29 35 29C32.93 29 31.25 30.68 31.25 32.75C31.25 34.43 32.36 35.825 33.875 36.305V40.25C33.875 40.865 34.385 41.375 35 41.375C35.615 41.375 36.125 40.865 36.125 40.25V36.305C37.64 35.825 38.75 34.43 38.75 32.75Z" fill="#5E4FB8"/>
</svg>
