<svg width="70" height="70" viewBox="0 0 70 70" fill="none" xmlns="http://www.w3.org/2000/svg">
<rect width="70" height="70" rx="35" fill="#FFD1AD"/>
<path opacity="0.4" d="M46.025 25.4899L36.59 20.405C35.6 19.865 34.4 19.865 33.395 20.405L23.96 25.4899C23.27 25.8649 22.85 26.6 22.85 27.41C22.85 28.22 23.27 28.9549 23.96 29.3299L33.395 34.4149C33.89 34.6849 34.445 34.82 34.985 34.82C35.525 34.82 36.08 34.6849 36.575 34.4149L46.01 29.3299C46.7 28.9549 47.12 28.22 47.12 27.41C47.15 26.6 46.715 25.8649 46.025 25.4899Z" fill="#D04B1E"/>
<path opacity="0.4" d="M31.85 36.185L23.075 31.79C22.4 31.445 21.62 31.49 20.975 31.88C20.33 32.27 19.955 32.9601 19.955 33.7101V42.005C19.955 43.445 20.75 44.735 22.04 45.38L30.815 49.7601C31.115 49.9101 31.445 49.985 31.775 49.985C32.165 49.985 32.555 49.8801 32.9 49.6551C33.545 49.2651 33.92 48.575 33.92 47.825V39.5301C33.935 38.1201 33.14 36.83 31.85 36.185Z" fill="#D04B1E"/>
<path opacity="0.4" d="M50.045 33.7251V40.61C50.03 40.595 50.015 40.565 50 40.55C50 40.535 49.985 40.52 49.97 40.505C49.91 40.415 49.835 40.325 49.76 40.25C49.745 40.235 49.73 40.205 49.715 40.19C48.5 38.84 46.715 38 44.75 38C42.86 38 41.135 38.78 39.905 40.04C38.72 41.255 38 42.92 38 44.75C38 46.01 38.36 47.21 38.975 48.23C39.23 48.665 39.545 49.055 39.89 49.415L39.185 49.775C38.885 49.925 38.555 50 38.225 50C37.835 50 37.445 49.8951 37.085 49.6701C36.455 49.2801 36.065 48.59 36.065 47.84V39.56C36.065 38.12 36.86 36.83 38.15 36.185L46.925 31.805C47.6 31.46 48.38 31.49 49.025 31.895C49.655 32.285 50.045 32.9751 50.045 33.7251Z" fill="#D04B1E"/>
<path d="M49.97 40.505C48.74 38.99 46.865 38.03 44.75 38.03C43.16 38.03 41.69 38.585 40.535 39.515C38.975 40.745 38 42.65 38 44.78C38 46.04 38.36 47.24 38.975 48.26C39.38 48.935 39.89 49.52 40.49 50H40.505C41.66 50.96 43.145 51.53 44.75 51.53C46.46 51.53 48.005 50.9 49.19 49.85C49.715 49.4 50.165 48.86 50.525 48.26C51.14 47.24 51.5 46.04 51.5 44.78C51.5 43.16 50.93 41.66 49.97 40.505ZM48.14 43.94L44.54 47.27C44.33 47.465 44.045 47.57 43.775 47.57C43.49 47.57 43.205 47.465 42.98 47.24L41.315 45.575C40.88 45.14 40.88 44.42 41.315 43.985C41.75 43.55 42.47 43.55 42.905 43.985L43.805 44.885L46.61 42.29C47.06 41.87 47.78 41.9 48.2 42.35C48.635 42.815 48.605 43.52 48.14 43.94Z" fill="#D04B1E"/>
</svg>
