<svg width="60" height="80" viewBox="0 0 60 80" fill="none" xmlns="http://www.w3.org/2000/svg">
<path opacity="0.4" d="M55.9 63.2667H24.1C22.7 63.2667 21.4333 62.3667 20.9667 61.0667L7.10001 22.2333C6.00001 19.1333 9.53334 16.5 12.1667 18.4L25.5 27.9333C27.2667 29.2 29.8 28.4333 30.5667 26.4L36.8667 9.59999C37.9333 6.69999 42.0333 6.69999 43.1 9.59999L49.4 26.4C50.1667 28.4667 52.6667 29.2 54.4667 27.9333L67.8 18.4C70.4667 16.5 73.9667 19.1667 72.8667 22.2333L59 61.0667C58.5667 62.3667 57.3 63.2667 55.9 63.2667Z" fill="#E0E2EA"/>
<path d="M56.6667 73.3333H23.3333C21.9667 73.3333 20.8333 72.2 20.8333 70.8333C20.8333 69.4667 21.9667 68.3333 23.3333 68.3333H56.6667C58.0333 68.3333 59.1667 69.4667 59.1667 70.8333C59.1667 72.2 58.0333 73.3333 56.6667 73.3333Z" fill="#E0E2EA"/>
<path d="M48.3333 49.1667H31.6667C30.3 49.1667 29.1667 48.0333 29.1667 46.6667C29.1667 45.3 30.3 44.1667 31.6667 44.1667H48.3333C49.7 44.1667 50.8333 45.3 50.8333 46.6667C50.8333 48.0333 49.7 49.1667 48.3333 49.1667Z" fill="#E0E2EA"/>
</svg>
