<svg width="114" height="40" viewBox="0 0 114 40" fill="none" xmlns="http://www.w3.org/2000/svg">
<path d="M22.0246 32.1116C22.0606 28.4402 21.1298 25.4546 19.9458 25.443C18.7617 25.4314 17.7727 28.3983 17.7369 32.0697C17.701 35.7411 18.6318 38.7268 19.8158 38.7383C20.9998 38.7499 21.9888 35.783 22.0246 32.1116Z" fill="#D04B1E"/>
<path d="M15.1576 31.2777C17.1729 28.2086 18.0042 25.1937 17.0144 24.5438C16.0246 23.8939 13.5885 25.855 11.5733 28.9241C9.558 31.9933 8.72672 35.0081 9.71648 35.6581C10.7063 36.308 13.1423 34.3469 15.1576 31.2777Z" fill="#D04B1E"/>
<path d="M9.82337 26.8744C13.1781 25.3823 15.5074 23.2955 15.0262 22.2136C14.545 21.1317 11.4354 21.4643 8.08065 22.9566C4.72596 24.4487 2.39658 26.5355 2.87782 27.6174C3.35905 28.6993 6.46868 28.3667 9.82337 26.8744Z" fill="#D04B1E"/>
<path d="M14.6235 19.1796C14.8037 18.0093 12.0079 16.6078 8.37911 16.0492C4.75022 15.4907 1.66243 15.9867 1.4823 17.157C1.30217 18.3273 4.09791 19.7287 7.72678 20.2873C11.3556 20.8459 14.4434 20.3499 14.6235 19.1796Z" fill="#D04B1E"/>
<path d="M15.9264 16.3916C16.7106 15.5044 15.116 12.8141 12.3649 10.3827C9.61375 7.95124 6.74784 6.69944 5.9637 7.58668C5.17956 8.47395 6.77412 11.1643 9.52527 13.5957C12.2764 16.0271 15.1423 17.2789 15.9264 16.3916Z" fill="#D04B1E"/>
<path d="M18.5211 14.7623C19.6605 14.4399 19.7737 11.3145 18.774 7.78164C17.7743 4.24877 16.0402 1.64618 14.9009 1.96859C13.7615 2.29099 13.6483 5.41631 14.648 8.94921C15.6477 12.482 17.3818 15.0847 18.5211 14.7623Z" fill="#D04B1E"/>
<path d="M25.5667 9.05909C26.6359 5.54661 26.5844 2.41967 25.4516 2.07486C24.3188 1.73004 22.5338 4.29793 21.4646 7.8104C20.3954 11.3229 20.447 14.4498 21.5798 14.7946C22.7126 15.1394 24.4976 12.5716 25.5667 9.05909Z" fill="#D04B1E"/>
<path d="M30.6011 13.8052C33.3993 11.428 35.0462 8.76935 34.2795 7.86698C33.5128 6.96458 30.623 8.16015 27.8249 10.5373C25.0267 12.9145 23.3799 15.5731 24.1466 16.4755C24.9132 17.3779 27.8031 16.1824 30.6011 13.8052Z" fill="#D04B1E"/>
<path d="M32.2658 20.5215C35.905 20.0347 38.7278 18.6886 38.5707 17.5149C38.4138 16.3413 35.3363 15.7846 31.6971 16.2714C28.058 16.7583 25.2351 18.1043 25.3922 19.278C25.5492 20.4516 28.6266 21.0084 32.2658 20.5215Z" fill="#D04B1E"/>
<path d="M36.9603 27.9528C37.4628 26.8806 35.175 24.7484 31.8504 23.1903C28.5258 21.6322 25.4234 21.2384 24.9209 22.3105C24.4184 23.3828 26.7062 25.515 30.0308 27.0731C33.3554 28.6311 36.4579 29.025 36.9603 27.9528Z" fill="#D04B1E"/>
<path d="M29.9671 35.8639C30.9695 35.2337 30.1978 32.203 28.2435 29.0947C26.2892 25.9865 23.8922 23.9778 22.8898 24.608C21.8874 25.2383 22.6591 28.269 24.6134 31.3772C26.5678 34.4855 28.9647 36.4943 29.9671 35.8639Z" fill="#D04B1E"/>
<path d="M54.44 27.14C52.8 27.14 51.4533 26.7533 50.4 25.98C49.3467 25.1933 48.78 24.0733 48.7 22.62H52.88C52.92 23.1133 53.0667 23.4733 53.32 23.7C53.5733 23.9267 53.9 24.04 54.3 24.04C54.66 24.04 54.9533 23.9533 55.18 23.78C55.42 23.5933 55.54 23.34 55.54 23.02C55.54 22.6067 55.3467 22.2867 54.96 22.06C54.5733 21.8333 53.9467 21.58 53.08 21.3C52.16 20.9933 51.4133 20.7 50.84 20.42C50.28 20.1267 49.7867 19.7067 49.36 19.16C48.9467 18.6 48.74 17.8733 48.74 16.98C48.74 16.0733 48.9667 15.3 49.42 14.66C49.8733 14.0067 50.5 13.5133 51.3 13.18C52.1 12.8467 53.0067 12.68 54.02 12.68C55.66 12.68 56.9667 13.0667 57.94 13.84C58.9267 14.6 59.4533 15.6733 59.52 17.06H55.26C55.2467 16.6333 55.1133 16.3133 54.86 16.1C54.62 15.8867 54.3067 15.78 53.92 15.78C53.6267 15.78 53.3867 15.8667 53.2 16.04C53.0133 16.2133 52.92 16.46 52.92 16.78C52.92 17.0467 53.02 17.28 53.22 17.48C53.4333 17.6667 53.6933 17.8333 54 17.98C54.3067 18.1133 54.76 18.2867 55.36 18.5C56.2533 18.8067 56.9867 19.1133 57.56 19.42C58.1467 19.7133 58.6467 20.1333 59.06 20.68C59.4867 21.2133 59.7 21.8933 59.7 22.72C59.7 23.56 59.4867 24.3133 59.06 24.98C58.6467 25.6467 58.04 26.1733 57.24 26.56C56.4533 26.9467 55.52 27.14 54.44 27.14ZM68.9023 15.68C70.1823 15.68 71.1957 16.1133 71.9423 16.98C72.7023 17.8333 73.0823 18.9933 73.0823 20.46V27H69.1623V20.98C69.1623 20.34 68.9957 19.84 68.6623 19.48C68.329 19.1067 67.8823 18.92 67.3223 18.92C66.7357 18.92 66.2757 19.1067 65.9423 19.48C65.609 19.84 65.4423 20.34 65.4423 20.98V27H61.5223V12.2H65.4423V17.38C65.789 16.8733 66.2557 16.4667 66.8423 16.16C67.4423 15.84 68.129 15.68 68.9023 15.68ZM86.7133 15.78V27H82.7733V25.4C82.4399 25.9067 81.9799 26.32 81.3933 26.64C80.8066 26.9467 80.1333 27.1 79.3733 27.1C78.0666 27.1 77.0333 26.6733 76.2733 25.82C75.5266 24.9533 75.1533 23.78 75.1533 22.3V15.78H79.0533V21.8C79.0533 22.44 79.2199 22.9467 79.5533 23.32C79.8999 23.68 80.3533 23.86 80.9133 23.86C81.4866 23.86 81.9399 23.68 82.2733 23.32C82.6066 22.9467 82.7733 22.44 82.7733 21.8V15.78H86.7133ZM90.9042 14.74C90.2109 14.74 89.6509 14.5533 89.2242 14.18C88.8109 13.7933 88.6042 13.3133 88.6042 12.74C88.6042 12.1533 88.8109 11.6667 89.2242 11.28C89.6509 10.8933 90.2109 10.7 90.9042 10.7C91.5842 10.7 92.1309 10.8933 92.5442 11.28C92.9709 11.6667 93.1842 12.1533 93.1842 12.74C93.1842 13.3133 92.9709 13.7933 92.5442 14.18C92.1309 14.5533 91.5842 14.74 90.9042 14.74ZM92.8642 28.1C92.8642 30.94 91.4376 32.36 88.5842 32.36H87.1642V29.02H88.0042C88.3376 29.02 88.5776 28.9533 88.7242 28.82C88.8709 28.6867 88.9442 28.4667 88.9442 28.16V15.78H92.8642V28.1ZM97.057 14.74C96.3637 14.74 95.8037 14.5533 95.377 14.18C94.9637 13.7933 94.757 13.3133 94.757 12.74C94.757 12.1533 94.9637 11.6667 95.377 11.28C95.8037 10.8933 96.3637 10.7 97.057 10.7C97.737 10.7 98.2837 10.8933 98.697 11.28C99.1237 11.6667 99.337 12.1533 99.337 12.74C99.337 13.3133 99.1237 13.7933 98.697 14.18C98.2837 14.5533 97.737 14.74 97.057 14.74ZM98.997 15.78V27H95.077V15.78H98.997ZM100.589 21.38C100.589 20.22 100.796 19.2067 101.209 18.34C101.636 17.4733 102.209 16.8067 102.929 16.34C103.663 15.8733 104.476 15.64 105.369 15.64C106.143 15.64 106.809 15.7933 107.369 16.1C107.929 16.4067 108.363 16.82 108.669 17.34V15.78H112.589V27H108.669V25.44C108.363 25.96 107.923 26.3733 107.349 26.68C106.789 26.9867 106.129 27.14 105.369 27.14C104.476 27.14 103.663 26.9067 102.929 26.44C102.209 25.9733 101.636 25.3067 101.209 24.44C100.796 23.56 100.589 22.54 100.589 21.38ZM108.669 21.38C108.669 20.66 108.469 20.0933 108.069 19.68C107.683 19.2667 107.203 19.06 106.629 19.06C106.043 19.06 105.556 19.2667 105.169 19.68C104.783 20.08 104.589 20.6467 104.589 21.38C104.589 22.1 104.783 22.6733 105.169 23.1C105.556 23.5133 106.043 23.72 106.629 23.72C107.203 23.72 107.683 23.5133 108.069 23.1C108.469 22.6867 108.669 22.1133 108.669 21.38Z" fill="#030504"/>
</svg>
